<svg xmlns="http://www.w3.org/2000/svg" width="239.549" height="38.499" viewBox="0 0 239.549 38.499"><g transform="translate(0 -0.75)"><path d="M17.843,0C10.01,0,4.64,4.914,0,11l2.75,4.033C7,9.2,11.519,4.6,17.843,4.6A14.593,14.593,0,0,1,32.264,16.785H14.23v4.6h22.7A19.081,19.081,0,0,0,17.843,0" transform="translate(44.202 0.75)" fill="#ee306f"/><path d="M61.626,33.857c-7.862,0-13.05-6.763-19.635-16.686S29.189,0,19.547,0A19.422,19.422,0,0,0,0,19.249,19.422,19.422,0,0,0,19.547,38.5c7.949,0,13.4-4.938,18.113-11.063l-2.775-4.093c-4.32,5.885-8.912,10.514-15.339,10.514A14.746,14.746,0,0,1,4.7,19.249,14.746,14.746,0,0,1,19.547,4.642c7.862,0,12.77,6.418,19.621,16.67S51.984,38.5,61.626,38.5A19.574,19.574,0,0,0,79.85,26.213H74.676a14.9,14.9,0,0,1-13.05,7.644" transform="translate(0 0.75)" fill="#ee306f"/><path d="M7.579,22.814H7.391a7.788,7.788,0,0,1-5.424-1.79A6.391,6.391,0,0,1,0,16.062,5.851,5.851,0,0,1,2.338,11.1c1.555-1.161,3.883-1.749,6.92-1.749h3.754V7.909a4.226,4.226,0,0,0-.933-2.9A3.4,3.4,0,0,0,9.414,3.965a4.542,4.542,0,0,0-2.918.9A2.775,2.775,0,0,0,5.365,7.117L.61,6.73A5.842,5.842,0,0,1,3.1,1.881,10.288,10.288,0,0,1,9.454,0c2.908,0,5.116.91,6.565,2.7A8.429,8.429,0,0,1,22.41,0h.114a8.283,8.283,0,0,1,6.506,2.633c1.551,1.747,2.338,4.24,2.338,7.411v2.785H17.709a6.958,6.958,0,0,0,1.671,4.433,5.375,5.375,0,0,0,4.127,1.607h.177A9.685,9.685,0,0,0,28.3,17.689L29.5,17l1.436,3.375a10.022,10.022,0,0,1-3.43,1.789,14.1,14.1,0,0,1-4.237.652h-.037a9.581,9.581,0,0,1-7.725-3.274,8.3,8.3,0,0,1-3.38,2.419A12.459,12.459,0,0,1,7.579,22.814Zm1.58-10.066a5.141,5.141,0,0,0-3.224,1.006,2.985,2.985,0,0,0-1.179,2.389,2.672,2.672,0,0,0,.914,2.124,3.894,3.894,0,0,0,2.636.8h.008a6.041,6.041,0,0,0,2.478-.6A7.417,7.417,0,0,0,13.011,17V12.748ZM22.4,3.963a4.09,4.09,0,0,0-3.066,1.4,7.183,7.183,0,0,0-1.563,3.985h8.884v-.61a5.283,5.283,0,0,0-1.072-3.538,3.835,3.835,0,0,0-3.057-1.24Z" transform="translate(95.534 7.879)" fill="#010101"/><path d="M8.742,0V5.22h3.966V8.793H8.742V20.78a2.557,2.557,0,0,0,.509,1.777,2.424,2.424,0,0,0,1.817.546,8.131,8.131,0,0,0,1.765-.2v3.731a12.96,12.96,0,0,1-3.322.457q-5.814,0-5.814-6.133V8.792H0V5.22H3.7V0Z" transform="translate(128.33 3.602)" fill="#010101"/><path d="M10.245,22.815h-.159A9.608,9.608,0,0,1,2.8,19.854,11.039,11.039,0,0,1,0,11.976v-.61A13.762,13.762,0,0,1,1.219,5.48,9.531,9.531,0,0,1,4.636,1.444,8.744,8.744,0,0,1,9.44,0h.1a8.139,8.139,0,0,1,6.647,2.867c1.557,1.9,2.346,4.632,2.346,8.113v1.992H4.772a6.782,6.782,0,0,0,1.741,4.311A5.091,5.091,0,0,0,10.2,18.871l.157,0a6.343,6.343,0,0,0,5.295-2.745l2.55,2.542a8.644,8.644,0,0,1-3.378,3.059A10.271,10.271,0,0,1,10.245,22.815ZM9.378,3.963a3.91,3.91,0,0,0-3,1.426A7.588,7.588,0,0,0,4.849,9.355h9.014V8.988A6.193,6.193,0,0,0,12.6,5.236a3.884,3.884,0,0,0-3.076-1.27Z" transform="translate(141.163 7.879)" fill="#010101"/><path d="M11.387,5.012A11.723,11.723,0,0,0,9.4,4.846q-3.354,0-4.519,2.65V22.814H0V.416H4.659L4.78,2.921A5.47,5.47,0,0,1,9.68,0a4.446,4.446,0,0,1,1.727.289Z" transform="translate(163.977 7.879)" fill="#010101"/><path d="M4.378.414,4.512,3a7.22,7.22,0,0,1,6.022-3Q17,0,17.111,8.012v14.8H12.465V8.3a4.88,4.88,0,0,0-.851-3.157A3.42,3.42,0,0,0,8.833,4.12,4.448,4.448,0,0,0,4.645,6.873V22.814H0V.414Z" transform="translate(178.236 7.879)" fill="#010101"/><path d="M5.35,29.943H.312V8.243H5.35v21.7ZM2.841,5.174a2.873,2.873,0,0,1-2.1-.731A2.492,2.492,0,0,1,0,2.608,2.557,2.557,0,0,1,.737.742,2.847,2.847,0,0,1,2.841,0,2.886,2.886,0,0,1,4.956.742,2.533,2.533,0,0,1,5.7,2.608a2.473,2.473,0,0,1-.746,1.835A2.909,2.909,0,0,1,2.841,5.174Z" transform="translate(198.198 0.75)" fill="#010101"/><path d="M8.742,0V5.22h3.966V8.793H8.742V20.78a2.556,2.556,0,0,0,.509,1.777,2.423,2.423,0,0,0,1.817.546,8.134,8.134,0,0,0,1.765-.2v3.731a12.96,12.96,0,0,1-3.323.457q-5.815,0-5.814-6.133V8.792H0V5.22H3.7V0Z" transform="translate(206.753 3.602)" fill="#010101"/><path d="M10.1,14.469,14.632,0h5.33L11.113,24.562Q9.075,29.943,4.2,29.944a9.269,9.269,0,0,1-2.408-.357V25.863l.947.059a5.039,5.039,0,0,0,2.85-.659A4.374,4.374,0,0,0,7.1,23.046l.72-1.832L0,0H5.392Z" transform="translate(219.586 9.305)" fill="#010101"/></g></svg>